<mxfile host="app.diagrams.net" agent="Mozilla/5.0 (Windows NT 10.0; Win64; x64) AppleWebKit/537.36 (KHTML, like Gecko) Chrome/118.0.0.0 Safari/537.36" version="25.0.3">
  <diagram name="Страница — 1" id="aHLTFvyRgcrrrhLvZWsB">
    <mxGraphModel dx="955" dy="493" grid="1" gridSize="10" guides="1" tooltips="1" connect="1" arrows="1" fold="1" page="1" pageScale="1" pageWidth="827" pageHeight="1169" math="0" shadow="0">
      <root>
        <mxCell id="0" />
        <mxCell id="1" parent="0" />
        <mxCell id="DroaBd8l_BF_NxmxPw5_-5" style="edgeStyle=orthogonalEdgeStyle;rounded=0;orthogonalLoop=1;jettySize=auto;html=1;entryX=0;entryY=0.75;entryDx=0;entryDy=0;strokeWidth=2;startArrow=none;startFill=0;exitX=1;exitY=0.75;exitDx=0;exitDy=0;" edge="1" parent="1" source="DroaBd8l_BF_NxmxPw5_-2" target="DroaBd8l_BF_NxmxPw5_-4">
          <mxGeometry relative="1" as="geometry">
            <Array as="points">
              <mxPoint x="270" y="320" />
            </Array>
          </mxGeometry>
        </mxCell>
        <mxCell id="DroaBd8l_BF_NxmxPw5_-6" style="edgeStyle=orthogonalEdgeStyle;rounded=0;orthogonalLoop=1;jettySize=auto;html=1;entryX=0;entryY=0.25;entryDx=0;entryDy=0;exitX=1;exitY=0.25;exitDx=0;exitDy=0;startArrow=none;startFill=0;strokeWidth=2;" edge="1" parent="1" source="DroaBd8l_BF_NxmxPw5_-2" target="DroaBd8l_BF_NxmxPw5_-4">
          <mxGeometry relative="1" as="geometry">
            <Array as="points">
              <mxPoint x="270" y="240" />
            </Array>
          </mxGeometry>
        </mxCell>
        <mxCell id="DroaBd8l_BF_NxmxPw5_-2" value="SCR-1 Core" style="rounded=1;whiteSpace=wrap;html=1;fillColor=#f8cecc;strokeColor=#b85450;" vertex="1" parent="1">
          <mxGeometry x="150" y="220" width="120" height="120" as="geometry" />
        </mxCell>
        <mxCell id="DroaBd8l_BF_NxmxPw5_-10" style="edgeStyle=orthogonalEdgeStyle;rounded=0;orthogonalLoop=1;jettySize=auto;html=1;exitX=1;exitY=0.25;exitDx=0;exitDy=0;startArrow=none;startFill=0;strokeWidth=2;" edge="1" parent="1" source="DroaBd8l_BF_NxmxPw5_-4" target="DroaBd8l_BF_NxmxPw5_-7">
          <mxGeometry relative="1" as="geometry" />
        </mxCell>
        <mxCell id="DroaBd8l_BF_NxmxPw5_-17" style="edgeStyle=orthogonalEdgeStyle;rounded=0;orthogonalLoop=1;jettySize=auto;html=1;exitX=1;exitY=0.75;exitDx=0;exitDy=0;startArrow=none;startFill=0;strokeWidth=2;" edge="1" parent="1" source="DroaBd8l_BF_NxmxPw5_-4" target="DroaBd8l_BF_NxmxPw5_-16">
          <mxGeometry relative="1" as="geometry" />
        </mxCell>
        <mxCell id="DroaBd8l_BF_NxmxPw5_-4" value="AXI-lite interconnect" style="rounded=1;whiteSpace=wrap;html=1;fillColor=#d5e8d4;strokeColor=#82b366;" vertex="1" parent="1">
          <mxGeometry x="420" y="200" width="130" height="160" as="geometry" />
        </mxCell>
        <mxCell id="DroaBd8l_BF_NxmxPw5_-7" value="RAM" style="rounded=1;whiteSpace=wrap;html=1;fillColor=#dae8fc;strokeColor=#6c8ebf;" vertex="1" parent="1">
          <mxGeometry x="660" y="210" width="120" height="60" as="geometry" />
        </mxCell>
        <mxCell id="DroaBd8l_BF_NxmxPw5_-11" value="IMEM AXI-lite bus" style="text;html=1;align=center;verticalAlign=middle;whiteSpace=wrap;rounded=0;" vertex="1" parent="1">
          <mxGeometry x="270" y="200" width="120" height="30" as="geometry" />
        </mxCell>
        <mxCell id="DroaBd8l_BF_NxmxPw5_-12" value="DMEM AXI-lite bus" style="text;html=1;align=center;verticalAlign=middle;whiteSpace=wrap;rounded=0;" vertex="1" parent="1">
          <mxGeometry x="270" y="330" width="120" height="30" as="geometry" />
        </mxCell>
        <mxCell id="DroaBd8l_BF_NxmxPw5_-13" value="AXI-lite bus" style="text;html=1;align=center;verticalAlign=middle;whiteSpace=wrap;rounded=0;" vertex="1" parent="1">
          <mxGeometry x="560" y="260" width="90" height="30" as="geometry" />
        </mxCell>
        <mxCell id="DroaBd8l_BF_NxmxPw5_-16" value="UART" style="rounded=1;whiteSpace=wrap;html=1;fillColor=#dae8fc;strokeColor=#6c8ebf;" vertex="1" parent="1">
          <mxGeometry x="660" y="290" width="120" height="60" as="geometry" />
        </mxCell>
      </root>
    </mxGraphModel>
  </diagram>
</mxfile>
